<svg width="400" height="186" viewBox="0 0 400 186" fill="none" xmlns="http://www.w3.org/2000/svg">
<path d="M0 23.6837C39.0524 62.6524 59.8 -6.00095 100 23.6837C139.052 62.6524 159.8 -6.00095 200 23.6837C239.052 62.6524 259.8 -6.00095 300 23.6837C339.052 62.6524 359.8 -6.00094 400 23.6837" stroke="black" stroke-width="2"/>
<path d="M0 47.6837C39.0524 86.6524 59.8 17.999 100 47.6837C139.052 86.6524 159.8 17.9991 200 47.6837C239.052 86.6524 259.8 17.9991 300 47.6837C339.052 86.6524 359.8 17.9991 400 47.6837" stroke="black" stroke-width="2"/>
<path d="M0 71.6837C39.0524 110.652 59.8 41.999 100 71.6837C139.052 110.652 159.8 41.9991 200 71.6837C239.052 110.652 259.8 41.9991 300 71.6837C339.052 110.652 359.8 41.9991 400 71.6837" stroke="black" stroke-width="2"/>
<path d="M0 91.6837C39.0524 130.652 59.8 61.999 100 91.6837C139.052 130.652 159.8 61.9991 200 91.6837C239.052 130.652 259.8 61.9991 300 91.6837C339.052 130.652 359.8 61.9991 400 91.6837" stroke="black" stroke-width="2"/>
<path d="M0 115.684C39.0524 154.652 59.8 85.999 100 115.684C139.052 154.652 159.8 85.9991 200 115.684C239.052 154.652 259.8 85.9991 300 115.684C339.052 154.652 359.8 85.9991 400 115.684" stroke="black" stroke-width="2"/>
<path d="M0 139.684C39.0524 178.652 59.8 109.999 100 139.684C139.052 178.652 159.8 109.999 200 139.684C239.052 178.652 259.8 109.999 300 139.684C339.052 178.652 359.8 109.999 400 139.684" stroke="black" stroke-width="2"/>
<path d="M0 163.684C39.0524 202.652 59.8 133.999 100 163.684C139.052 202.652 159.8 133.999 200 163.684C239.052 202.652 259.8 133.999 300 163.684C339.052 202.652 359.8 133.999 400 163.684" stroke="black" stroke-width="2"/>
<path d="M0 187.684C39.0524 226.652 59.8 157.999 100 187.684C139.052 226.652 159.8 157.999 200 187.684C239.052 226.652 259.8 157.999 300 187.684C339.052 226.652 359.8 157.999 400 187.684" stroke="black" stroke-width="2"/>
<path d="M0 2.68372C39.0524 41.6524 59.8 -27.001 100 2.68372C139.052 41.6524 159.8 -27.0009 200 2.68372C239.052 41.6524 259.8 -27.0009 300 2.68372C339.052 41.6524 359.8 -27.0009 400 2.68372" stroke="black" stroke-width="2"/>
</svg>
